<?xml version="1.0" encoding="utf-8"?>
<!-- Generator: Adobe Illustrator 24.0.3, SVG Export Plug-In . SVG Version: 6.00 Build 0)  -->
<svg version="1.1" xmlns="http://www.w3.org/2000/svg" xmlns:xlink="http://www.w3.org/1999/xlink" x="0px" y="0px"
	 viewBox="0 0 512 512" style="enable-background:new 0 0 512 512;" xml:space="preserve">
    <defs>
		<filter id="f1" x="0" y="0">
			<feGaussianBlur in="SourceGraphic" stdDeviation="24" />
	    </filter>
	</defs>
	<style type="text/css">
		.st0{opacity:0.16;}
	</style>
	<path class="st0" filter="url(#f1)" d="M498.2,361.2c-0.4-2-1.4-3.9-3.1-5.6c-1.3-1.4-3.1-2.6-5.2-3.8c12.3-4.5,20.4-11.3,21.3-18.4
	c1.1-9.1-10.3-19.3-45.4-20.4c-0.9,0-1.9-0.1-2.8-0.1c-0.3,0-0.6,0-0.9,0c-0.7,0-1.3,0-2,0c-0.3,0-0.6,0-0.9,0c-0.7,0-1.3,0-2,0
	c-0.3,0-0.5,0-0.8,0c-0.8,0-1.6,0-2.4,0c-0.1,0-0.2,0-0.3,0c-2,0-3.9,0.1-5.9,0.2c-0.1,0-0.2,0-0.2,0c-0.9,0-1.8,0.1-2.7,0.1
	c-0.1,0-0.2,0-0.3,0c-0.9,0.1-1.8,0.1-2.8,0.2c0,0,0,0-0.1,0c0,0,0,0,0,0c-18.2,1.3-35.8,4.5-51.6,8.4c13.4-9.1,25.4-19.8,31.5-31.7
	c0.3-0.6,0.6-1.2,0.9-1.8c0.3-0.6,0.5-1.2,0.8-1.8c0.3-0.7,0.5-1.4,0.8-2.1c0,0,0,0,0,0c0,0,0,0,0,0c6.2-18.6-9.3-26.8-25.9-28.2
	c0,0,0,0-0.1,0c-0.7-0.1-1.4-0.1-2.1-0.1c-0.1,0-0.3,0-0.4,0c-0.7,0-1.4-0.1-2-0.1c-0.2,0-0.4,0-0.6,0c-0.7,0-1.3,0-2,0
	c-0.2,0-0.4,0-0.6,0c-0.5,0-1,0-1.5,0.1c-0.3,0-0.6,0-0.9,0c-0.5,0-1,0.1-1.5,0.1c-0.3,0-0.7,0.1-1,0.1c-0.5,0-1,0.1-1.6,0.2
	c-0.4,0-0.8,0.1-1.2,0.1c-0.2,0-0.5,0.1-0.7,0.1c-0.7,0.1-1.4,0.2-2.1,0.3c-0.1,0-0.3,0-0.4,0.1c-6.9,1.2-13.5,3.3-19.2,6.1
	c-5.9-5.4-17.5-8.1-31.6-7c-18,1.5-41.1,9.6-52.2,28.2c-8.4,14.1-6.6,26.9-0.9,37.4c-17.4-5.6-39.8-9.8-67.3-8.9
	c-36.1,1.1-56.9,11.3-64.4,20.4c-5.8,7.2-4.1,14,4.1,18.4c-12.7,4.5-21.4,11.3-22.8,18.4c-1.8,9.1,9,19.3,44.6,20.4
	c10.1,0.3,20.1-0.1,30-0.9c-27.4,13.4-51.9,27.6-73,42.4c-31.1,21.6-54.8,44.4-70.4,67.8c-2.2,3.4-1.4,6.5,1.8,8.7c0,0,0,0,0,0
	c0,0,0,0,0,0c1,0.7,2.2,1.3,3.7,1.8c0,0,0,0,0,0c0.5,0.2,0.9,0.3,1.4,0.4c0.1,0,0.1,0,0.2,0c0.5,0.1,1,0.2,1.5,0.4
	c0.1,0,0.2,0,0.2,0c0.5,0.1,1,0.2,1.6,0.3c0.1,0,0.2,0,0.3,0c0.5,0.1,1.1,0.1,1.7,0.2c0.1,0,0.2,0,0.2,0c0.6,0.1,1.2,0.1,1.8,0.1
	c0,0,0,0,0,0c0.6,0,1.2,0,1.8,0c11.7,0,23.8-4.6,27.6-10.4c13.5-20.6,34.2-40.7,61.3-59.7c16.2-11.4,34.7-22.4,55.1-33
	c-2.2,3.3-4,6.6-5.3,10.1c-6.7,18.6,9.3,26.8,26.6,28.2c2.1,0.2,4.2,0.3,6.3,0.3c11.7,0,23.7-2.6,33.3-7.2c2.6,2.3,6.3,4,10.7,5.3
	c0,0,0,0,0,0c0,0,0,0,0,0c0.4,0.1,0.7,0.2,1.1,0.3c0.1,0,0.1,0,0.2,0.1c0.7,0.2,1.3,0.3,2,0.4c0.2,0,0.4,0.1,0.6,0.1
	c0.5,0.1,1.1,0.2,1.6,0.3c0.3,0,0.6,0.1,0.9,0.1c0.3,0,0.6,0.1,1,0.1c0.5,0.1,1.1,0.1,1.6,0.2c0.3,0,0.6,0.1,0.8,0.1
	c0.6,0,1.2,0.1,1.8,0.1c0.2,0,0.4,0,0.6,0c0.6,0,1.2,0,1.8,0.1c0.2,0,0.3,0,0.5,0c0.7,0,1.4,0,2.2,0c0.2,0,0.3,0,0.5,0
	c0.7,0,1.5,0,2.3-0.1c0.1,0,0.3,0,0.4,0c0.8,0,1.6-0.1,2.4-0.1c0,0,0.1,0,0.1,0c18.7-1.5,42.4-9.6,52.9-28.2
	c8-14.1,5.6-26.9-0.6-37.4c15.8,5,35.6,8.8,59.3,9c0.1,0,0.2,0,0.4,0c0.8,0,1.7,0,2.5,0c0.2,0,0.4,0,0.5,0c0.9,0,1.7,0,2.6,0
	c0.1,0,0.2,0,0.3,0c1,0,2,0,3.1-0.1c36.7-1.1,56.9-11.3,63.6-20.4C497.8,367.1,498.7,364,498.2,361.2z"/>
</svg>
