<?xml version="1.0" encoding="iso-8859-1"?>
<!-- Generator: Adobe Illustrator 21.0.0, SVG Export Plug-In . SVG Version: 6.00 Build 0)  -->
<svg xmlns="http://www.w3.org/2000/svg" xmlns:xlink="http://www.w3.org/1999/xlink" version="1.1" id="Capa_1" x="0px" y="0px" viewBox="0 0 510.982 510.982" style="enable-background:new 0 0 510.982 510.982;" xml:space="preserve" width="512" height="512">
<g>
	<path style="fill:#008950;" d="M229.759,218.234c-2.718-2.718-7.051-2.943-10.033-0.518c-15.72,12.772-31.989,22.328-48.355,28.4   c-1.158,0.429-2.191,1.138-3.009,2.062c-1.612,1.823-3.229,3.674-4.849,5.563c-26.086,30.416-47.582,63.233-63.889,97.541   c-20.495,43.115-32.796,88.668-36.56,135.393c-0.998,12.365,8.252,23.237,20.616,24.234c0.601,0.049,1.216,0.073,1.828,0.073   c11.632-0.001,21.476-9.092,22.409-20.693c3.309-41.06,14.105-81.144,32.089-119.14c14.495-30.627,33.681-60.02,57.02-87.359   c0.986-1.155,1.972-2.294,2.957-3.423c0.614-0.704,1.092-1.517,1.407-2.396c6.047-16.839,15.766-33.562,28.884-49.705   C232.699,225.284,232.477,220.952,229.759,218.234z"/>
	<path style="fill:#00723F;" d="M219.726,217.717c-4.712,3.828-9.473,7.361-14.272,10.604   c-31.658,43.77-78.251,113.894-89.363,137.374c-17.983,37.996-28.78,78.08-32.089,119.14c-0.716,8.9-6.684,16.305-14.673,19.28   c3.672,3.801,8.682,6.338,14.351,6.795c0.601,0.049,1.216,0.073,1.828,0.073c11.632-0.001,21.476-9.092,22.409-20.693   c3.309-41.06,14.105-81.144,32.089-119.14c14.495-30.627,33.681-60.02,57.02-87.359c0.986-1.155,1.972-2.294,2.957-3.423   c0.614-0.704,1.092-1.517,1.407-2.396c6.047-16.839,15.766-33.562,28.884-49.705c2.424-2.982,2.201-7.314-0.517-10.032   C227.041,215.516,222.708,215.291,219.726,217.717z"/>
	<path style="fill:#45BF7F;" d="M433.581,191.142c10.779-8.909,16.181-22.475,13.892-36.771   c-2.918-18.221-19.246-38.486-56.323-40.722c-28.217-1.697-53.679,6.601-74.631,17.823c11.224-20.951,19.523-46.413,17.823-74.631   c-2.235-37.077-22.501-53.405-40.723-56.322c-14.292-2.29-27.86,3.11-36.77,13.891C247.94,3.632,234.384-1.768,220.077,0.519   c-18.221,2.918-38.486,19.246-40.721,56.322c-1.701,28.217,6.6,53.679,17.823,74.631c-20.952-11.224-46.423-19.534-74.631-17.823   c-37.077,2.235-53.405,22.501-56.323,40.722c-2.289,14.297,3.111,27.862,13.891,36.771c-10.779,8.909-16.18,22.474-13.891,36.77   c2.918,18.221,19.246,38.487,56.323,40.722c28.218,1.693,53.679-6.6,74.631-17.823c-11.224,20.952-19.524,46.414-17.823,74.631   c2.234,37.077,22.5,53.405,40.722,56.323c2.178,0.349,4.339,0.519,6.47,0.519c11.852,0,22.749-5.272,30.302-14.409   c8.908,10.779,22.476,16.176,36.77,13.891c18.222-2.917,38.487-19.245,40.723-56.323c1.7-28.218-6.6-53.678-17.823-74.63   c20.952,11.224,46.417,19.518,74.631,17.822c37.077-2.234,53.405-22.501,56.323-40.722   C449.762,213.616,444.361,200.052,433.581,191.142z"/>
	<path style="fill:#00B76C;" d="M334.342,56.842c-2.235-37.077-22.501-53.405-40.723-56.322c-8.306-1.331-16.359-0.049-23.404,3.361   c14.645,6.82,28.054,23.203,29.848,52.961c1.394,23.143-6.837,51.118-16.035,71.991c-2.415,5.482,2.482,11.361,8.309,9.971   c7.176-1.712,14.867-4.105,24.181-7.331C327.742,110.521,336.042,85.059,334.342,56.842z"/>
	<path style="fill:#00B76C;" d="M334.342,325.443c-2.235,37.077-22.501,53.405-40.723,56.322   c-8.306,1.331-16.359,0.049-23.404-3.361c14.645-6.82,28.054-23.203,29.848-52.961c1.394-23.143-6.837-51.118-16.035-71.99   c-2.415-5.482,2.482-11.361,8.309-9.971c7.176,1.712,14.867,4.105,24.181,7.331C327.742,271.764,336.042,297.225,334.342,325.443z"/>
	<path style="fill:#00B76C;" d="M433.581,191.142c10.779-8.909,16.181-22.475,13.892-36.771   c-2.918-18.221-19.246-38.486-56.323-40.722c-8.555-0.515-16.854-0.106-24.854,1.02c30.452,4.82,44.241,23.106,46.899,39.701   c2.289,14.297-3.112,27.862-13.892,36.771c10.78,8.909,16.181,22.474,13.892,36.77c-2.658,16.595-16.447,34.882-46.897,39.701   c7.999,1.126,16.298,1.535,24.852,1.02c37.077-2.234,53.405-22.501,56.323-40.722C449.762,213.616,444.361,200.052,433.581,191.142   z"/>
</g>















</svg>
