<svg xmlns="http://www.w3.org/2000/svg" viewBox="0 0 64 64"><defs><style>.cls-1{fill:#68768a;}.cls-2{fill:#4caf50;}.cls-3{fill:#66bb6a;}</style></defs><title>favicon</title><g id="Ebene_2" data-name="Ebene 2"><g id="Ebene_6" data-name="Ebene 6"><rect class="cls-1" width="64" height="64"/><path class="cls-2" d="M29.44,31.56h-.06c1.92-1.09,12-10,14.09-11.2.54-.28,1.1-.61,1.66-.95l-1.66.95,2-3.38h0a8,8,0,0,0-13-9.26A8,8,0,0,0,19.33,17h0l1.89,3.27-3.34-1.92h0A8,8,0,0,0,8.74,31.47,8,8,0,0,0,13.41,46a8.05,8.05,0,0,0,4.47-1.37h0l3-1.72a51.22,51.22,0,0,0-14,16.74h6.87a50.67,50.67,0,0,1,4.43-11,8.22,8.22,0,0,0-.23,1.93,8,8,0,0,0,14.5,4.67,8,8,0,0,0,13-9.26h0l-2-3.42h0C41.27,41.27,31.43,32.72,29.44,31.56Zm0,2.88v0l-.06,0h.06v0l0,0Z"/><path class="cls-3" d="M17.88,44.6a7.76,7.76,0,0,1-2.8,1.19A51.43,51.43,0,0,0,4.52,59.62H6.81a51.22,51.22,0,0,1,14-16.74l-3,1.72Z"/><path class="cls-3" d="M59.47,38a8,8,0,0,0-3.33-6.5A7.15,7.15,0,0,0,59.2,27,7.89,7.89,0,0,0,59.47,25,8,8,0,0,0,57,19.15,7.19,7.19,0,0,0,51.47,17h0a5.94,5.94,0,0,0-1.78.2,7.76,7.76,0,0,0-2.41,1c-.74.39-1.45.83-2.15,1.25s-1.12.67-1.66.95c-2.14,1.21-12.17,10.11-14.09,11.2h.06c2,1.16,11.83,9.71,14,11h0l1.37.79,2,1.19h0A7.37,7.37,0,0,0,51.38,46h.09a8,8,0,0,0,6.31-3.08A7.32,7.32,0,0,0,59.47,38Z"/></g></g></svg>