<svg xmlns="http://www.w3.org/2000/svg" viewBox="0 0 192 192"><defs><style>.cls-1{fill:#68768a;}.cls-2{fill:#4caf50;}.cls-3{fill:#66bb6a;}</style></defs><title>Logo192</title><g id="Ebene_2" data-name="Ebene 2"><g id="Ebene_6" data-name="Ebene 6"><rect class="cls-1" width="192" height="192"/><path class="cls-2" d="M88.32,94.69h-.19c5.77-3.28,35.86-30,42.29-33.62,1.62-.82,3.28-1.81,5-2.83l-5,2.83,5.85-10.14v0A24,24,0,0,0,97.13,23.13,24,24,0,0,0,58,50.91l0,0,5.67,9.83L53.65,55h0a24,24,0,0,0-27.4,39.41,24,24,0,0,0,14,43.5,24.23,24.23,0,0,0,5-.53,23.65,23.65,0,0,0,8.4-3.57h0l8.86-5.18a153.8,153.8,0,0,0-42.09,50.25H41a152.29,152.29,0,0,1,13.3-33,24,24,0,0,0,42.79,19.79,24,24,0,0,0,39.15-27.77v0l-5.85-10.25h0C123.8,123.8,94.29,98.15,88.32,94.69Zm0,8.62v-.08l-.19-.11h.19v.11l.14.08Z"/><path class="cls-3" d="M53.63,133.81a23.65,23.65,0,0,1-8.4,3.57,153.77,153.77,0,0,0-31.66,41.5h6.85a153.8,153.8,0,0,1,42.09-50.25l-8.86,5.18Z"/><path class="cls-3" d="M178.42,113.91a24,24,0,0,0-10-19.5,21.42,21.42,0,0,0,9.19-13.3,24,24,0,0,0-6.71-23.65,21.53,21.53,0,0,0-16.47-6.55h0a17.72,17.72,0,0,0-5.33.6,23.49,23.49,0,0,0-7.25,3c-2.2,1.17-4.35,2.5-6.44,3.76-1.69,1-3.35,2-5,2.83C124,64.72,93.9,91.41,88.13,94.69h.19c6,3.46,35.48,29.11,42.1,32.94h0l4.09,2.37,6.12,3.55h0a21.94,21.94,0,0,0,13.5,4.34h.28a24,24,0,0,0,18.92-9.25A22,22,0,0,0,178.42,113.91Z"/></g></g></svg>