<svg xmlns="http://www.w3.org/2000/svg" viewBox="0 0 512 512"><defs><style>.cls-1{fill:#68768a;}.cls-2{fill:#4caf50;}.cls-3{fill:#66bb6a;}</style></defs><title>Logo512</title><g id="Ebene_2" data-name="Ebene 2"><g id="Ebene_6" data-name="Ebene 6"><rect class="cls-1" width="512" height="512"/><path class="cls-2" d="M235.53,252.5H235c15.36-8.73,95.61-79.91,112.75-89.65,4.32-2.19,8.75-4.81,13.27-7.55l-13.27,7.55,15.61-27,0-.06A64,64,0,0,0,259,61.68a64,64,0,0,0-104.4,74.07l0,.06L169.8,162l-26.74-15.34,0,0A64,64,0,0,0,70,251.75,64,64,0,0,0,143,356.84l0,0L166.69,343A410.17,410.17,0,0,0,54.46,477h55a405.65,405.65,0,0,1,35.47-88A64.05,64.05,0,0,0,207,468.5a63.9,63.9,0,0,0,52-26.68,64,64,0,0,0,104.4-74.07l0-.06-15.61-27.33h0C330.14,330.13,251.43,261.72,235.53,252.5Zm0,23v-.21L235,275h.5v.29l.36.21Z"/><path class="cls-3" d="M143,356.84a63.76,63.76,0,0,1-22.42,9.51A410,410,0,0,0,36.2,477H54.46A410.17,410.17,0,0,1,166.69,343l-23.63,13.81Z"/><path class="cls-3" d="M475.78,303.75a63.92,63.92,0,0,0-26.68-52,57.12,57.12,0,0,0,24.51-35.46,64,64,0,0,0-17.9-63,57.44,57.44,0,0,0-43.93-17.49h0a48.13,48.13,0,0,0-14.24,1.6,63.7,63.7,0,0,0-19.33,7.92c-5.87,3.13-11.58,6.67-17.15,10-4.52,2.74-8.95,5.36-13.27,7.55-17.14,9.74-97.39,80.92-112.75,89.65h.5c15.9,9.22,94.61,77.63,112.25,87.86h0l10.9,6.32c7.44,4.32,16,9.29,16.31,9.45l0,0h0a58.38,58.38,0,0,0,36,11.58h.75a63.86,63.86,0,0,0,50.45-24.65A58.57,58.57,0,0,0,475.78,303.75Z"/></g></g></svg>