<svg xmlns="http://www.w3.org/2000/svg" viewBox="0 0 16 16">
	<path d="M15,7.85a2.11,2.11,0,0,0,.89-1.29A2.35,2.35,0,0,0,16,6a2.29,2.29,0,0,0-.73-1.68,2.06,2.06,0,0,0-1.59-.63h0a1.51,1.51,0,0,0-.52.06,2.23,2.23,0,0,0-.7.28c-.21.11-.42.24-.62.36s-.32.2-.48.28l.57-1h0a2.36,2.36,0,0,0,.42-1.33A2.32,2.32,0,0,0,8.11,1a2.32,2.32,0,0,0-4.2,1.35,2.36,2.36,0,0,0,.42,1.33h0l.55.95L3.91,4h0a2.28,2.28,0,0,0-1.29-.39,2.32,2.32,0,0,0-1.35,4.2,2.29,2.29,0,0,0-1,1.88,2.32,2.32,0,0,0,2.32,2.32A2,2,0,0,0,3.1,12,15,15,0,0,0,0,16H2.69A14.52,14.52,0,0,1,4,12.82a2,2,0,0,0-.07.56,2.32,2.32,0,0,0,4.2,1.35,2.32,2.32,0,0,0,3.78-2.68h0l-.57-1,.4.23.59.34h0a2.09,2.09,0,0,0,1.3.41h0a2.32,2.32,0,0,0,1.83-.9A2.17,2.17,0,0,0,16,9.73,2.32,2.32,0,0,0,15,7.85Zm-7.73.86h0Z"/>
</svg>